<svg version="1.2" xmlns="http://www.w3.org/2000/svg" viewBox="0 0 317 345" width="317" height="345">
	<defs>
		<linearGradient id="g1" x2="1" gradientUnits="userSpaceOnUse" gradientTransform="matrix(-27.599,144.558,-158.505,-30.262,168.1,100.251)">
			<stop offset="0" stop-color="#f38739"/>
			<stop offset="1" stop-color="#d4225b"/>
		</linearGradient>
		<linearGradient id="g2" x2="1" gradientUnits="userSpaceOnUse" gradientTransform="matrix(-8.86,63.178,-19.631,-2.753,160.151,135.372)">
			<stop offset="0" stop-color="#ed723b"/>
			<stop offset="1" stop-color="#dd3559"/>
		</linearGradient>
		<linearGradient id="g3" x2="1" gradientUnits="userSpaceOnUse" gradientTransform="matrix(-32.364,210.41,-220.72,-33.95,200.621,31.44)">
			<stop offset="0" stop-color="#fa9e2c"/>
			<stop offset="1" stop-color="#e24653"/>
		</linearGradient>
		<linearGradient id="g4" x2="1" gradientUnits="userSpaceOnUse" gradientTransform="matrix(-17.701,61.521,-44.452,-12.79,99.461,61.473)">
			<stop offset="0" stop-color="#e47b33"/>
			<stop offset="1" stop-color="#d55b39"/>
		</linearGradient>
		<linearGradient id="g5" x2="1" gradientUnits="userSpaceOnUse" gradientTransform="matrix(1.75,-1.713,4.066,4.154,498.87,163.356)">
			<stop offset="0" stop-color="#ffffff" stop-opacity="0"/>
			<stop offset="1" stop-color="#fefdfe" stop-opacity=".03"/>
		</linearGradient>
	</defs>
	<style>
		.s0 { fill: #d63451 } 
		.s1 { fill: #f4f4f3 } 
		.s2 { fill: url(#g1) } 
		.s3 { fill: #f58d33 } 
		.s4 { fill: url(#g2) } 
		.s5 { fill: url(#g3) } 
		.s6 { fill: url(#g4) } 
		.s7 { fill: #eb7141 } 
		.s8 { fill: #4a4f53 } 
		.s9 { fill: url(#g5) } 
	</style>
	<path class="s0" d="m134.43 23.18c26.51-16.67 50.68 4.99 73.44 17.38l39.74 22.68c6.26 3.6 12.68 7.34 18.98 10.84 24.83 13.81 22.41 35.83 22.43 60.24l0.02 39.88-0.01 30.13c-0.01 26.1-1.05 40.44-26.32 54.1 0.88 5.87-0.02 22.07 0.16 28.72-0.12 8.07 0.21 16.06 0.18 24.13-0.01 4.61-2.94 8.74-7.64 6.17-5.11-2.79-10.05-6.41-14.89-9.64l-29.13-19.36-21.81 12.03c-6.05 3.37-14.28 8.28-20.66 10.52-4.2 1.52-8.63 2.28-13.1 2.24-16.47-0.16-28.69-10.1-42.68-17.99q-24.65-13.84-49.04-28.14c-6.82-3.98-13.76-7.91-20.55-11.93-24.2-14.33-21.12-36.22-21.09-60.55l0.14-45.9c-0.3-5.46 0.04-11.3-0.12-16.73-0.86-30.1-0.2-44.27 27.18-60.43 9.52-5.38 18.88-11.16 28.43-16.55q19.15-11.09 38.44-21.91c4.12-2.33 14.21-8.44 17.9-9.93z"/>
	<path class="s1" d="m148.19 74.94c11.91 0.05 22.55 0.28 34.12 3.76 39.09 11.77 65.1 47.38 64.8 88.12q-0.03 4.94-0.55 9.86c-3.61 25.13-15.23 46.43-35.71 61.82-19.34 14.52-43.66 20.76-67.59 17.33-24.35-3.56-46.3-16.6-61.07-36.28-7.76-10.53-12.1-21.03-15.65-33.44-0.5-3.66-1.08-7.35-1.5-10.98-5.1-44.89 26.33-87.75 69.97-98.1 4.48-1.06 8.54-1.59 13.18-2.09z"/>
	<path class="s1" d="m122.99 90.82c31.32-13.77 67.9-6.58 91.7 18 24.85 25.69 30.15 64.53 13.08 95.93-17.07 31.4-52.54 48.09-87.61 41.2-35.07-6.88-61.61-35.74-65.54-71.26-3.93-35.52 15.65-69.48 48.37-83.87z"/>
	<path class="s2" d="m214.69 108.82c24.85 25.69 30.15 64.53 13.08 95.93-17.07 31.4-52.54 48.09-87.61 41.2-35.07-6.88-61.61-35.74-65.54-71.26-3.93-35.52 15.66-69.48 48.37-83.87-0.6-0.6 15.6 7.96 15.05 7.88-30.54 8.16-51.7 35.94-51.46 67.56 0.24 31.61 21.83 59.06 52.49 66.76 30.66 7.7 62.65-6.31 77.8-34.06 15.14-27.75 9.61-62.23-13.45-83.85l1.47 0.02c7.13-5.29 5.51-1.19 11.59-2.94-1.52-1.86-1.73-1.48-1.79-3.37z"/>
	<path class="s3" d="m122.99 90.82c31.32-13.77 67.9-6.58 91.7 18 0.06 1.89 0.27 1.51 1.79 3.37-6.08 1.75-4.46-2.35-11.59 2.94l-1.47-0.02c-17.5-16.4-42.22-22.61-65.38-16.41 0.55 0.08-15.65-8.48-15.05-7.88z"/>
	<path class="s4" d="m154.14 134c11.44-0.24 8.19 13.3 8.38 21.81 0.31 13.18 0.2 26.75-0.28 39.89-0.07 1.81-3.27 3.77-4.64 4.54-9.83 0.87-8.16-9.07-8.16-15.96 0.01-15.12-0.35-30.32 0.21-45.41 0.08-2.17 2.92-3.85 4.49-4.87z"/>
	<path class="s0" d="m179.72 152.52c2.63-0.14 5.9-0.01 7.25 2.5 2.95 5.49 1.66 17.5 1.5 23.7-1.28 1.54-2.41 2.45-3.92 3.78-13.09 1.03-8.79-15.14-8.89-23.56-0.03-2.92 1.84-4.81 4.06-6.42z"/>
	<path class="s0" d="m128.53 152.5c7.95 0.9 8.11 7.22 8.06 13.91-0.05 6.98 1.34 12.91-5.75 16.15-8.77-0.65-7.79-9.04-7.91-15.73-0.11-6.21-0.71-11.57 5.6-14.33z"/>
	<path class="s5" d="m134.43 23.18c26.51-16.67 50.68 4.99 73.44 17.38l39.74 22.68c6.26 3.6 12.68 7.34 18.98 10.84 24.83 13.81 22.41 35.83 22.43 60.24l0.02 39.88-0.01 30.13c-0.01 26.1-1.05 40.44-26.32 54.1 0.18-6.59-0.04-12.87-0.07-19.37-0.11-29.26-0.55-58.83-12.1-86.26-0.84-2.01-2.11-6.38-3.73-7.67-1.22 0.87 3.57 24.57-0.25 31.55q0.52-4.92 0.55-9.86c0.3-40.74-25.71-76.35-64.8-88.12-11.57-3.48-22.21-3.71-34.12-3.76-4.08-1.38-11.34-1.97-16-2.98-21.02-4.56-35.01-6.44-54.1-16.94q19.15-11.08 38.44-21.91c4.12-2.33 14.21-8.44 17.9-9.93z"/>
	<path class="s3" d="m134.43 23.18c26.51-16.67 50.68 4.99 73.44 17.38 0.11 1.74 0.5 2.44-0.3 3.48-2.19-1.28-4.64-1.18-7.31-3.42-1.54-0.21-5.47-3.18-6.42-3.29-7.22-0.81-12.79-3.21-18.63-6.55-0.27 1.15-0.03 0.68-0.59 1.46-10.18-6.38-11.87-6.54-24.28-6.7-0.06-1.28 0.2-0.76-0.61-1.65-5.51-0.46-9.89-1.54-15.3-0.71z"/>
	<path class="s6" d="m49.66 71.57c9.52-5.38 18.88-11.16 28.43-16.55 19.09 10.5 33.08 12.38 54.1 16.94 4.66 1.01 11.92 1.6 16 2.98-4.64 0.5-8.7 1.03-13.19 2.09-43.63 10.35-75.06 53.21-69.96 98.1 0.42 3.63 1 7.32 1.5 10.98l-0.15 0.04-0.58-0.35c-4.3-17.3-1.72-40.05 5.34-56.31 1.63-3.74 5.75-10.72 7.89-14.5-1-2.21-2.8-2.76-4.67-3.96-6.3-4.06-10.06-1.64-16.74-0.01-1.1 0.35-7.67 2.15-7.72 3.35-0.8 20.88 3.57 43.25 10.06 63.1 1.35 4.13 3.64 7.79 4.12 10.96q-0.32-0.24-0.65-0.48c-6.31-12.07-13.62-39.55-13.48-51.47-1-12.33-2.73-53.51-0.3-64.91z"/>
	<path class="s7" d="m22.6 148.73c-0.3-5.46 0.04-11.3-0.12-16.73-0.86-30.1-0.2-44.27 27.18-60.43-2.43 11.4-0.7 52.58 0.3 64.91l-0.73-0.67c-3.37 0.59-6.85 2.58-9.79 2.31-4.05-0.37-12.69 6.69-15.47 2.74-0.59 2.39-0.19 21.61-0.56 26.72-0.23-4.32-0.25-15.56-0.81-18.85z"/>
	<path class="s8" d="m722.3 135.19c17.77-0.82 31.74 6.7 34.22 25.9 2.63 20.37-3.23 39.62-26.4 42.74-18.79 1.06-31.93-7.76-34.49-26.84-2.76-20.57 4.04-38.82 26.67-41.8zm7.03 55.98c3.91-1.02 7.88-2.71 9.44-6.6 5.69-14.26 5.09-38.62-15.49-36.99-4.21 1.33-8.12 3.65-9.88 7.81-5.98 14.09-4.15 37.16 15.93 35.78z"/>
	<path class="s8" d="m325.42 136.07c11.25-0.09 25.7-0.88 36.66 0.52 15.35 1.95 22.02 21.48 6.54 30.87 10.73 5.32 13.55 14.42 9 25.37-5.8 11.44-22.24 10.08-33.04 10.12l-19.12 0.05zm14.68 55.05c7.42-0.03 17.76 1.4 23.13-3.12 9.24-17.04-15.92-12.76-23.09-14.09q-0.14 8.61-0.04 17.21zm-0.1-28.06c5.65 0.04 15.6 0.85 19.88-2.39 4.03-4.95 2.82-8.69-2.24-12.03-5.37-0.91-11.91-0.67-17.47-0.68-0.06 4.97-0.2 10.13-0.17 15.1z"/>
	<path class="s8" d="m615.21 136.02c5.25-0.17 11.31-0.05 16.62-0.05 6.38 12.08 11.43 26.85 17.71 39.29 5.26-13.18 11.86-26.24 17.01-39.23 5.55-0.1 11.36-0.02 16.93-0.03-0.33 22.06 0.36 44.85-0.32 66.72-4.25-0.27-9.34-0.09-13.67-0.05q-0.24-14.86-0.02-29.71c0.05-5.77 0.22-9.26 0.78-14.96l-16.29 35.2-9.41 0.33q-8.68-18.39-16.46-37.18c2.16 12.42 1.29 33.12 1.34 46.62l-13.91-0.1c-0.47-21.94-0.29-44.88-0.31-66.85z"/>
	<path class="s8" d="m484.91 135.95c4.78 0.03 9.85-0.03 14.6 0.12 8.67 12.09 20.29 31.7 28.32 44.67-1.25-13.45-0.58-30.81-0.82-44.67l14.36 0.01q-0.5 33.46-0.21 66.93c-4.36-0.03-9.77 0.09-14.04-0.14-8.66-12.53-16.36-25.74-24.64-37.87-1.15-2.04-2.04-3.87-3.59-5.61l-0.4 0.46 0.28 2.39c0.52 13.12 0.17 27.52 0.23 40.78l-13.99 0.02c0.03-21.48 0.61-45.79-0.1-67.09z"/>
	<path class="s8" d="m556.09 136.01c15.54 0.11 31.27-0.19 46.78 0.21l0.09 12.23c-9.48-0.43-22.12-0.01-31.81 0.04 0.28 3.96-0.01 10.35-0.06 14.47 9.26-0.34 18.7 0.37 28.02-0.39q-0.1 6.23 0.04 12.46c-8.09-0.17-19.47-0.35-27.39 0.05l-0.42 0.51c0.1 4.49-0.2 10.56-0.26 15.25 10.82-0.14 21.44-0.03 32.33-0.25-0.17 4.38-0.23 8.11-0.01 12.47-15.57-0.23-31.54-0.06-47.14-0.08-0.39-22.05-0.15-44.87-0.17-66.97z"/>
	<path class="s8" d="m458.67 136.11c5.23-0.15 11.23 0 16.52 0.01-6.78 10.3-13.83 22.37-20.34 32.95 2.73 3.91 21.79 32.42 21.42 33.94l-1.14 0.03c-5.35 0.09-10.14 0.14-15.5-0.07-4.34-7.81-9.39-15.84-13.88-23.73-3.38 6.92-9.78 17.01-13.84 23.76l-16.87-0.01c6.54-11.31 14.63-23.07 22.11-33.8-4.67-5.95-16.63-25.89-20.51-32.98q8.17-0.16 16.34 0.01c3.01 4.59 10.87 17.38 12.97 22.15 3.07-6.56 8.89-15.59 12.72-22.26z"/>
	<path class="s8" d="m391.1 136.11l15.33 0.04-0.16 66.37c-1.42 0.79-12.37 0.41-14.74 0.39-0.92-20.71-0.37-45.8-0.43-66.8z"/>
	<path class="s1" d="m841.52 600.69c3.39 1.78 5.51 12.25 10.91 16.23 4.72 3.48 8.43 4.7 13.57 7.27-1.63 0.9-4.79 2.2-6.54 2.99-11.36 5.14-13.26 10.66-17.15 21.25-0.74-0.97-3.57-6.64-4.18-7.93-4.99-10.56-10.39-12.5-20.58-16.83 16.55-7.23 16.39-6.88 23.97-22.98z"/>
	<path class="s9" d="m498.77 162.24l-0.28-2.39 0.4-0.46c1.55 1.74 2.44 3.57 3.59 5.6l-2.79-0.86z"/>
</svg>